<svg width="50" height="50" viewBox="0 0 50 50" fill="none" xmlns="http://www.w3.org/2000/svg">
<rect width="50" height="50" rx="10" fill="#292929"/>
<path fill-rule="evenodd" clip-rule="evenodd" d="M5.0018 12.8398L5.00359 18.6797L8.56703 22.1418C10.5269 24.046 12.1587 25.5753 12.1934 25.5402C12.228 25.5052 13.0112 23.4375 13.9337 20.9453C14.8563 18.4531 15.632 16.3613 15.6574 16.2969C15.6929 16.2068 15.2612 15.9736 13.7893 15.2878C12.7364 14.7973 11.875 14.3915 11.875 14.386C11.875 14.371 10.3217 7.37844 10.2734 7.17578L10.2314 7H7.6157H5L5.0018 12.8398ZM39.7266 7.17578C39.6783 7.37844 38.125 14.371 38.125 14.386C38.125 14.3915 37.2636 14.7973 36.2107 15.2878C34.7388 15.9736 34.3071 16.2068 34.3426 16.2969C34.368 16.3613 35.1437 18.4531 36.0663 20.9453C36.9888 23.4375 37.772 25.5052 37.8066 25.5402C37.8413 25.5753 39.4731 24.046 41.433 22.1418L44.9964 18.6797L44.9982 12.8398L45 7H42.3843H39.7686L39.7266 7.17578ZM15.9905 22.1291L13.8952 27.8035L16.3291 33.0072C17.6678 35.8693 18.7865 38.2346 18.8152 38.2635C18.8437 38.2924 20.2383 36.4028 21.9141 34.0645C23.5898 31.7261 24.9785 29.8128 25 29.8128C25.0215 29.8128 26.4102 31.7261 28.0859 34.0645C29.7617 36.4028 31.1562 38.2924 31.1848 38.2635C31.2135 38.2346 32.3322 35.8693 33.6709 33.0072L36.1048 27.8035L34.0095 22.1291L31.9141 16.4546H25H18.0859L15.9905 22.1291ZM22.4609 37.3211C20.7691 39.6805 20.005 40.8077 20.0378 40.8953C20.0641 40.9658 20.4091 41.7177 20.8045 42.5662L21.5234 44.1089H25H28.4766L29.1955 42.5662C29.5909 41.7177 29.9359 40.9658 29.9622 40.8953C29.995 40.8077 29.2309 39.6805 27.5391 37.3211C26.18 35.4258 25.0374 33.875 25 33.875C24.9626 33.875 23.82 35.4258 22.4609 37.3211Z" fill="#666666"/>
</svg>
